<svg xmlns="http://www.w3.org/2000/svg" viewBox="0 0 48 48"><linearGradient id="Vgthbj6Ww-SRWHchJvqnea" x1="10.395" x2="37.946" y1="604.395" y2="631.946" gradientTransform="translate(0 -594)" gradientUnits="userSpaceOnUse"><stop offset="0" stop-color="#75daff"/><stop offset="1" stop-color="#1ea2e4"/></linearGradient><path fill="url(#Vgthbj6Ww-SRWHchJvqnea)" d="M26.3,4.6L28.8,6l2.9,0c1.7,0,3.2,0.9,4,2.3l1.5,2.5l2.5,1.5c1.4,0.8,2.3,2.4,2.3,4l0,2.9l1.4,2.5	c0.8,1.4,0.8,3.2,0,4.7L42,28.8l0,2.9c0,1.7-0.9,3.2-2.3,4l-2.5,1.5l-1.5,2.5c-0.8,1.4-2.4,2.3-4,2.3l-2.9,0l-2.5,1.4	c-1.4,0.8-3.2,0.8-4.7,0L19.2,42l-2.9,0c-1.7,0-3.2-0.9-4-2.3l-1.5-2.5l-2.5-1.5c-1.4-0.8-2.3-2.4-2.3-4l0-2.9l-1.4-2.5	c-0.8-1.4-0.8-3.2,0-4.7L6,19.2l0-2.9c0-1.7,0.9-3.2,2.3-4l2.5-1.5l1.5-2.5c0.8-1.4,2.4-2.3,4-2.3l2.9,0l2.5-1.4	C23.1,3.8,24.9,3.8,26.3,4.6z"/><path d="M32.2,16.2L22,26.3l-5.2-5.2c-0.8-0.8-2-0.8-2.8,0l-1.4,1.4c-0.8,0.8-0.8,2,0,2.8l8,8c0.8,0.8,2,0.8,2.8,0	l13-13c0.8-0.8,0.8-2,0-2.8L35,16.2C34.2,15.4,33,15.4,32.2,16.2z" opacity=".05"/><path d="M20.9,33.1l-8-8c-0.6-0.6-0.6-1.5,0-2.1l1.4-1.4c0.6-0.6,1.5-0.6,2.1,0l5.5,5.5l10.5-10.5	c0.6-0.6,1.5-0.6,2.1,0l1.4,1.4c0.6,0.6,0.6,1.5,0,2.1l-13,13C22.5,33.6,21.5,33.6,20.9,33.1z" opacity=".07"/><path fill="#fff" d="M21.3,32.7l-8-8c-0.4-0.4-0.4-1,0-1.4l1.4-1.4c0.4-0.4,1-0.4,1.4,0l5.9,5.9l10.9-10.9c0.4-0.4,1-0.4,1.4,0	l1.4,1.4c0.4,0.4,0.4,1,0,1.4l-13,13C22.3,33.1,21.7,33.1,21.3,32.7z"/></svg>