<svg xmlns="http://www.w3.org/2000/svg" viewBox="0 0 48 48"><rect width="24.6" height="4" x="13.7" y="14.5" fill="#6c19ff" transform="rotate(-26.565 26.001 16.5)"/><rect width="4" height="24.6" x="24" y="19.2" fill="#6c19ff" transform="rotate(-63.435 26 31.502)"/><circle cx="11" cy="24" r="7" fill="#3ddab4"/><circle cx="37" cy="37" r="7" fill="#3ddab4"/><circle cx="37" cy="11" r="7" fill="#3ddab4"/><path fill="#00b569" d="M30.1,12.2c0.2,1.4,0.9,2.6,1.8,3.6l6-3l-1.8-3.6L30.1,12.2z"/><path fill="#00b569" d="M30.1,35.8l6,3l1.8-3.6l-6-3C31,33.2,30.3,34.4,30.1,35.8z"/><path fill="#3ddab4" d="M16.5,28.3c0.9-1.2,1.5-2.8,1.5-4.3c0-1.8-0.7-3.5-1.9-4.8c-0.3,0.2-0.6,0.3-0.9,0.5c-0.2,0.1-0.3,0.2-0.5,0.2	c-0.1,0.1-0.4,0.1-0.5,0.2c0.2,0.3,0.5,0.5,0.7,0.8c0.2,0.3,0.4,0.6,0.6,0.9c0.3,0.6,0.5,1.3,0.5,2c0,0,0,0.1,0,0.1	c0,1.5-0.7,2.9-1.8,3.8c0.6,0.3,1.3,0.6,1.9,1C16.2,28.6,16.4,28.5,16.5,28.3z"/></svg>