<svg id="SvgjsSvg1001" width="550" height="550" xmlns="http://www.w3.org/2000/svg" version="1.1" xmlns:xlink="http://www.w3.org/1999/xlink" xmlns:svgjs="http://svgjs.com/svgjs"><defs id="SvgjsDefs1002"></defs><g id="SvgjsG1008"><svg xmlns="http://www.w3.org/2000/svg" data-name="Layer 2" viewBox="0 0 383.723 414.071" width="550" height="550"><g data-name="Layer 1"><path fill="#fefefe" d="M204.807 305.787c-.245-.31-.635-.668-1.171-1.074-.145-.142-.307-.319-.488-.533l-3.464-.529c-.793.652-1.539 1.562-2.238 2.733-.591 1.074-.836 2.157-.734 3.247.17 1.472.678 2.672 1.522 3.601.456.758 1.202 1.179 2.24 1.263 1.074.234 2.244-.129 3.511-1.088.774-.663 1.337-1.718 1.689-3.166.312-1.4.289-2.453-.072-3.16-.175-.433-.44-.864-.794-1.294zM200.492 339.516c1.059.159 1.949 0 2.67-.48 1.011-1.097 1.55-2.043 1.614-2.841.087-.323.24-1.007.458-2.051.038-.178.064-.349.078-.514.011-.939-.047-1.625-.175-2.055-.149-.531-.392-1.017-.727-1.459-.091-.091-.187-.164-.288-.218-.64-.229-.99-.395-1.051-.498l-2.426-.358c-2.864.913-4.288 2.461-4.274 4.642.205 1.975.663 3.418 1.375 4.329.507.864 1.422 1.364 2.746 1.502zM201.927 363.733c.624.13 1.27-.204 1.938-1.001.537-.599.872-1.304 1.004-2.115.193-1.65.242-2.673.148-3.069-.16-1.169-.411-2.257-.755-3.265-.167-.627-.36-.964-.578-1.009l-3.137-.3c-2.634.681-3.903 2.553-3.808 5.616.144 1.263.778 2.525 1.902 3.789.546.571 1.641 1.023 3.287 1.355zM200.705 384.224c2.127-.145 3.459-1.055 3.999-2.732.389-1.279.497-2.701.324-4.264-.464-1.878-.917-2.876-1.358-2.993l-3.795-.258c-.669.133-1.317.597-1.945 1.392-.625 1.106-.946 1.734-.964 1.883-.144.456-.2.977-.168 1.563.075 1.201.458 2.45 1.149 3.746.864 1.012 1.783 1.566 2.758 1.663zM204.268 396.889c-1.289-1.711-1.969-2.549-2.04-2.514l-2.252.421c-1.096.212-1.969 1.029-2.618 2.451-.351.946-.44 2.307-.267 4.084.037.818.602 1.864 1.696 3.136.69.578 1.612.818 2.765.72 2.284-.552 3.566-2.163 3.845-4.833.059-.799-.141-1.677-.6-2.634-.149-.285-.325-.562-.529-.83zM237.737 232.145l-.416-17.723c-.137-.378.174-4.879.932-13.502.033-.236.045-1.06.037-2.474.012-2.268-.228-3.563-.718-3.886-.078-.085-.457.543-1.137 1.884l-4.074 8.134c-3.375 5.326-6.407 9.215-9.095 11.668-.188.275-.366.613-.54.982l-4.384 2.64c-2.388 1.892-3.659 2.804-3.812 2.737-1.495.978-4.497 2.07-9.006 3.276-2.103.687-4.781 1.233-8.035 1.639-.499.19-4.292.201-11.381.034-5.903-1.209-12.086-3.273-18.551-6.193-.285-.084-1.283-.793-2.995-2.126l-7.648-6.689.101-.959c-1.167-.701-2.874-2.976-5.119-6.824-1.155-2.138-2.541-5.526-4.158-10.163-.652-.873-1.088-.787-1.307.256l-.202 7.783c.081 1.722.112 3.347.092 4.877l-.22 4.371.021 2.704-.562 14.164c-.185 4.527-.97 10.553-2.356 18.076.185.03.35.049.53.076-.477 2.364-.708 4.126-.69 5.28.226.95.816 1.77 1.769 2.459l10.466 5.954 21.888 8.994c.695.246 1.355.437 1.983.574.535 1.297.868 2.005.993 2.107.624.826 1.448 2.221 2.472 4.185 1.721 2.641 2.699 4.084 2.932 4.329.768.92 1.572 1.746 2.404 2.496.147.341.302.693.469 1.066l3.411 3.741c.258.185.577.121.957-.191.794-.53 3.182-3.312 7.165-8.343.201-.109 1.293-1.883 3.275-5.323.64-.868 1.272-2.154 1.897-3.812 1.993-.496 3.566-1.008 4.704-1.536l3.431-1.825c5.673-2.165 8.515-3.332 8.526-3.502l7.656-4.296c2.56-.981 4.905-2.048 7.037-3.202.299-.025 1.389-.837 3.269-2.434l-.004-.237c.502-.301.763-.731.777-1.291l-1.858-10.454c-.523-3.604-.831-6.771-.926-9.5z" class="colorfefefe svgShape"></path><path fill="#fefefe" d="m278.756,128.029c-2.015-2.816-5.074-4.12-9.179-3.911-5.5.699-9.004,1.909-10.511,3.631-1.088,1.059-2.093,2.064-3.031,3.024l.958-6.722.455-8.756c-.086-1.606-.18-2.995-.279-4.178.011-.068.027-.138.037-.205.122-.71.201-1.421.238-2.132-.181-1.98-.256-3.082-.225-3.306-.06-.104.057-.95.352-2.541.036-.399-.008-.653-.133-.762-.219-.202-.657-.121-1.316.245l-5.314,3.033c-.25-.028-.509-.04-.789-.019-3.287.83-6.153,1.22-8.597,1.168-.794-.048-2.472-.508-5.033-1.38-2.735-.955-5.825-3.254-9.27-6.898l-10.968-4.936c-.543-.175-2.06-1.674-4.551-4.497l-3.722,1.386c-.662.177-2.388.308-5.179.39-2.71-.325-5.294-1.263-7.752-2.813-2.338,2.389-4.326,4.114-5.964,5.177.625-.085-1.719.909-7.014,2.975-.133-.035-.277-.07-.446-.104-1.99-.142-3.313-.336-3.968-.582-.792-.159-1.822-.728-3.087-1.708-.163-.042-.382.039-.656.246-1.293,1.329-2.005,1.995-2.133,1.995-.43.312-.918.543-1.465.693-1.915.746-4.403.846-7.465.301-3.265-.861-5.169-2.534-5.712-5.019-2.823,3.182-7.506,5.447-14.047,6.795-.986.255-2.615.265-4.886.028-2.917-.258-5.052-.543-6.413-.854l-4.918-3.507c-.646-.277-1.015.197-1.104,1.423l.809,15.539c.879,10.481,1.538,16.65,1.976,18.507.103,1.01.054,1.664-.149,1.964-.111.189-.266.211-.464.067-.301-1.152-3.333-3.628-9.096-7.428-2.333-1.034-4.35-1.311-6.048-.832-4.686,1.399-7.315,2.822-7.89,4.268-2.084,3.847-2.851,8.328-2.298,13.445.408,4.786,1.363,8.187,2.866,10.202,4.741,7.01,7.719,10.608,8.935,10.795,7.5,4.523,13.763,4.534,18.794.056.547,2.287,1.252,4.749,2.114,7.385l.186,1.965c.136-.085.258-.165.385-.247.87,2.537,1.872,5.22,3.018,8.063,1.677,3.76,4.472,8.516,8.387,14.268.671.626,1.286,1.118,1.851,1.49,5.228,8.084,13.693,14.082,25.415,17.979.449.198,2.047.485,4.794.863,4.521.223,7.86.567,10.018,1.033l7.671.37c.347-.013.73-.066,1.11-.115.322,0,.64.005.974-.005,1.807.074,7.74-1.625,17.799-5.095l6.583-4.261c2.59-2.411,5.07-4.513,7.438-6.308,6.329-6.286,9.977-10.691,10.946-13.217.978-2.325,1.665-4.257,2.069-5.806,1.251-1.701,2.389-3.892,3.411-6.588,1.096-3.59,2.102-7.563,3.022-11.891,2.463,2.55,4.29,3.834,5.477,3.847,2.431.694,6.414-.303,11.947-2.991l4.201-2.213c.561-.437,1.659-1.706,3.295-3.807,1.189-1.562,2.466-3.744,3.831-6.545,1.569-3.45,2.383-6.09,2.442-7.92.058-5.717-.853-10.555-2.733-14.515Zm-88.924,35.873l-.222-.414c-3.612,2.592-7.788,4.202-12.528,4.83-1.92-.068-5.01-.497-9.271-1.287-1.579-.379-3.551-1.1-5.915-2.163-2.147-1.212-2.871-1.857-2.173-1.935-.083-.105,1.215-.252,3.895-.441l3.557-.768c1.42-.711,3.01-1.32,4.772-1.826,1.527-.967,3.368-1.849,5.526-2.647.52-.219,1.07-.364,1.652-.434.933-.304,2.639.095,5.12,1.198.411.148.791.307,1.157.471l4.596,5c-.459-1.505.525-2.924,2.952-4.257,3.064-1.517,5.364-2.298,6.899-2.344,1.114-.001,2.633.373,4.557,1.125,3.997,2.226,6.267,3.319,6.811,3.279.003.223,3.028.671,9.074,1.345.75.924-1.343,2.261-6.277,4.011-1.565.571-4.607.994-9.126,1.27-3.545.083-5.487.009-5.825-.221-5.022-1.604-7.979-2.906-8.873-3.905-.125-.023-.244.021-.357.113Z" class="colorfefefe svgShape"></path><g><path d="m383.723,358.816l-.095-4.025v-.025s-.188-3.94-.188-3.94v-.025s-.282-3.935-.282-3.935l-.002-.025-.374-3.927-.003-.025-.467-3.917-.003-.024-.56-3.905-.004-.024-.652-3.891c-.005-.032-.025-.057-.034-.088-.004-.022.002-.044-.004-.066l-.66-2.411-.014-.047-.772-2.377-.016-.046-.883-2.338-.018-.045-.992-2.294-.021-.045-1.098-2.245-.022-.044-1.202-2.191-.025-.042-1.304-2.132-.027-.041-1.403-2.069-.029-.041-1.592-2.119-.032-.041-1.695-2.037-.034-.039-1.794-1.951-.036-.038-1.889-1.859-.038-.035-1.979-1.763-.04-.034-2.064-1.662-.042-.032-2.145-1.557-.043-.03-2.22-1.448c-.071-.046-.15-.063-.227-.09-.019-.011-.03-.029-.05-.038l-9.94-4.829-.025-.012-10.065-4.563-.026-.011-10.182-4.294-.026-.01-10.293-4.021-.026-.01-10.396-3.746-.026-.009-10.492-3.469-.024-.008-8.627-2.623-.022-.006-8.682-2.435-.022-.006-8.732-2.246-.022-.005-8.503-1.991c.075-.248.05-.506-.065-.734l.185-1.215.005-.036.208-1.8.004-.036.143-1.806.002-.036.078-1.81v-.036s.014-1.812.014-1.812v-.036s-.052-1.811-.052-1.811l-.002-.036-.117-1.808-.003-.033-.152-1.544-.003-.031-.199-1.539-.005-.031-.246-1.532-.005-.031-.293-1.523-.006-.03-.34-1.513-.007-.03-.386-1.503-.008-.03-.432-1.49c-.086-.296-.301-.511-.562-.628-.053-.042-.097-.092-.161-.123l-1.265-.618-.035-.016-1.288-.569-.036-.015-1.309-.519-.036-.014-1.328-.468-.037-.012-1.345-.417-.037-.011-1.36-.365-.038-.009-1.373-.312-.038-.008-1.356-.255-.037-.006-1.365-.204-.038-.005-1.371-.152-.038-.004-1.376-.1-.038-.002-1.379-.048h-.038s-1.38.003-1.38.003h-.038s-.612.026-.612.026l-.142-1.44-.423-5.513-.323-6.031-.178-6.042-.014-2.639c.079-.014.158-.016.235-.049l.968-.414.053-.024.943-.466.052-.027.917-.517.05-.03.887-.567.048-.033.854-.615.046-.035.82-.661.044-.037.782-.705.042-.04.742-.746.04-.042.701-.786.037-.044.656-.823.035-.046.61-.857.032-.048.562-.889.03-.05.513-.919.027-.052.462-.945.024-.053.409-.969.021-.054.355-.99.018-.055.301-1.008.015-.056.245-1.023.012-.057.189-1.035.009-.057.125-.989.602-.269.062-.03.919-.485.06-.034.886-.543.058-.038.849-.6.055-.042.808-.654.053-.045.774-.715.05-.049.725-.764.046-.052.673-.811.043-.055.618-.853.039-.058.561-.892.035-.06.501-.927.031-.063.439-.958.027-.065.375-.985.023-.066.31-1.007.018-.067.242-1.026.014-.069.175-1.039.009-.069.106-1.048.005-.07.011-.321.506-.287.063-.038.839-.558.06-.043.799-.615.057-.047.754-.668.053-.051.706-.719.05-.054.655-.766.046-.057.6-.81.042-.061.545-.854.038-.064.484-.89.033-.066.421-.922.028-.068.356-.949.024-.07.289-.971.019-.072.22-.989.014-.073.151-1.001.009-.074.081-1.01.003-.074.01-1.013-.002-.074-.06-1.011-.007-.074-.131-1.005-.012-.073-.2-.993c-.011-.053-.042-.094-.06-.143-.005-.024.002-.047-.005-.071l-.034-.127h0s-.035-.129-.035-.129h0s-.035-.127-.035-.127h0s-.035-.128-.035-.128h0s-.034-.127-.034-.127h0s-.014-.053-.014-.053l1.034-.702.036-.026,1.061-.787.035-.027,1.026-.832.034-.029.99-.875.033-.03.951-.916.031-.031.912-.956.029-.032.814-.927.027-.032.776-.958.026-.033.738-.989.024-.034.698-1.017.023-.035.656-1.044.021-.036.615-1.07.02-.036.572-1.093.018-.037.528-1.115c.019-.041.017-.084.031-.125.018-.036.048-.063.062-.102l.421-1.177.016-.047.365-1.196.013-.048.307-1.212.011-.049.249-1.225.009-.049.189-1.236.007-.05.13-1.243.004-.05.071-1.248.002-.05.011-1.25v-.049s-.045-1.182-.045-1.182l-.003-.047-.098-1.179-.005-.047-.151-1.174-.007-.047-.204-1.166-.009-.046-.257-1.155-.011-.046-.309-1.142-.013-.045-.36-1.127-.015-.045-.411-1.11c-.027-.074-.078-.129-.119-.193-.002-.003-.001-.006-.003-.009l-.357-.613-.034-.055-.122-.182c.039-.039.088-.065.121-.111l.704-.968.039-.058.638-1.012.036-.061.57-1.052.031-.063.499-1.087.027-.065.426-1.118.023-.066.351-1.144.018-.068.274-1.164.014-.069.197-1.18.009-.07.118-1.191.005-.07.039-1.196v-.07l-.041-1.195-.005-.07-.119-1.19-.01-.07-.202-1.201-.014-.07-.283-1.185-.019-.069-.363-1.163-.024-.068-.44-1.136-.028-.066-.339-.726.522-.68.042-.059.734-1.104.038-.062.657-1.152.034-.064.577-1.194.029-.066.494-1.23.025-.068.409-1.261.02-.07.322-1.286.015-.071.234-1.305.01-.072.144-1.318.005-.072.054-1.325v-.073s-.036-1.326-.036-1.326l-.004-.072-.127-1.32-.009-.072-.217-1.308-.014-.071-.305-1.289-.019-.07-.392-1.265-.024-.068-.477-1.235-.028-.067-.56-1.2-.033-.064-.641-1.159-.037-.062-.718-1.113-.03-.042.816-1.095.045-.066.861-1.358.04-.069.757-1.418.035-.072.649-1.471.029-.074.537-1.515.024-.076.422-1.552.018-.078.305-1.579.012-.079.186-1.597.006-.079.066-1.606v-.08s-.055-1.607-.055-1.607l-.005-.079-.175-1.598-.012-.079-.294-1.581-.018-.078-.411-1.554-.023-.076-.527-1.519-.029-.074-.639-1.475-.034-.071-.728-1.389-.039-.067-.828-1.333-.043-.064-.923-1.269-.048-.061-1.013-1.198-.052-.057-1.098-1.121-.056-.053-1.177-1.037-.06-.049-1.249-.948-.063-.045-1.315-.855-.066-.04-1.006-.554c0-.029.01-.055.007-.083l-.2-1.719-.011-.073-.32-1.701-.016-.073-.438-1.675-.021-.071-.554-1.64-.026-.069-.667-1.597-.031-.068-.778-1.547-.036-.065-.884-1.488-.04-.062-.986-1.423-.044-.06-1.083-1.35-.049-.056-1.175-1.271-.052-.053-1.261-1.186-.056-.049-1.341-1.095-.059-.045-1.414-.998-.061-.04-1.432-.87-.063-.035-1.487-.771-.065-.031-1.536-.668-.067-.026-1.578-.563-.068-.022-1.612-.455-.07-.017-1.639-.344-.071-.012-1.659-.233-.072-.008-1.671-.12-.072-.003-1.675-.007-.072.002-1.672.107-.072.007-.276.036-.828-1.257-.036-.052-1.174-1.569-.039-.049-1.265-1.497-.042-.047-1.351-1.419-.045-.044-1.433-1.336-.047-.042-1.51-1.249-.05-.039-1.581-1.157-.052-.036-1.647-1.061-.054-.032-1.708-.962-.056-.029-1.761-.859-.058-.026-1.809-.752-.059-.022-1.848-.643-.06-.019-1.883-.532-.061-.015-1.911-.42-.062-.011-1.933-.306-.062-.008-1.947-.191-.063-.004-1.955-.075h-.063s-1.956.04-1.956.04l-.063.003-.517.042c-.039-.102-.081-.203-.153-.292l-.857-1.059-.035-.041-.91-1.014-.037-.039-.96-.967-.039-.037-1.008-.917-.041-.035-1.053-.865-.043-.033-1.096-.81-.044-.031-1.135-.753-.046-.029-1.173-.695-.047-.026-1.206-.635-.049-.024-1.273-.588-.051-.022-1.302-.521-.052-.019-1.327-.452-.053-.017-1.349-.382-.053-.014-1.367-.311-.054-.011-1.381-.239-.055-.008-1.392-.167-.055-.005-1.399-.094-.056-.002-1.402-.021c-.076-.001-.144.026-.216.04-.071-.016-.138-.044-.214-.044l-1.402-.007h-.055s-1.401.068-1.401.068l-.055.004-1.395.14-.055.007-1.386.212-.055.01-1.373.284-.054.013-1.356.355-.053.016-1.336.426-.052.018-1.312.495-.051.021-1.284.563-.05.023-1.219.61-.047.026-1.186.672-.046.028-1.15.731-.045.03-1.112.788-.043.032-1.07.844-.042.034-1.026.897-.04.037-.979.948-.038.038-.93.996-.036.04-.878,1.042c-.074.088-.117.188-.158.289l-.516-.052-.063-.004-1.955-.08h-.063s-1.957.035-1.957.035l-.063.003-1.951.152-.062.007-1.938.268-.062.01-1.919.382-.061.014-1.893.495-.061.018-1.86.606-.059.021-1.824.717-.058.025-1.778.823-.056.028-1.726.928-.055.031-1.668,1.029-.053.035-1.604,1.125-.051.038-1.534,1.219-.048.041-1.459,1.308-.046.043-1.379,1.392-.043.046-1.294,1.472-.04.049-1.204,1.546-.037.051-.853,1.24-.275-.042-.072-.008-1.669-.14-.072-.004-1.675-.027h-.072s-1.673.088-1.673.088l-.072.006-1.663.2-.071.011-1.646.312-.07.016-1.621.423-.069.021-1.589.531-.067.025-1.549.638-.065.03-1.502.741-.063.034-1.448.841-.062.039-1.434.97-.06.044-1.362,1.068-.057.048-1.284,1.161-.053.052-1.2,1.248-.05.055-1.11,1.329-.046.059-1.014,1.403-.041.062-.913,1.47-.037.065-.808,1.531-.032.067-.699,1.584-.028.069-.586,1.629-.023.071-.471,1.666-.018.072-.354,1.695-.012.073-.234,1.715c-.004.029.007.055.005.084l-1.017.534-.067.039-1.332.829-.064.043-1.268.924-.061.048-1.197,1.014-.057.052-1.12,1.099-.053.056-1.037,1.177-.049.06-.948,1.25-.045.063-.854,1.316-.04.067-.756,1.375-.035.07-.668,1.463-.03.074-.557,1.509-.025.076-.442,1.546-.019.077-.325,1.575-.013.079-.207,1.595-.007.079-.087,1.606v.08s.032,1.608.032,1.608l.005.079.154,1.6.011.079.273,1.585.016.078.391,1.559.022.076.507,1.526.028.074.62,1.484.033.072.729,1.433.039.069.834,1.375.044.067.794,1.111-.03.041-.74,1.098-.039.062-.663,1.146-.034.064-.584,1.189-.03.066-.502,1.226-.025.068-.417,1.257-.021.07-.33,1.282-.016.071-.242,1.303-.011.072-.153,1.317-.006.072-.063,1.324v.073s.027,1.326.027,1.326l.004.072.118,1.321.009.072.208,1.31.014.071.296,1.292.019.07.384,1.269.023.069.469,1.24.028.067.553,1.205.032.065.634,1.165.037.062.712,1.119.041.06.508.69-.353.719-.03.065-.462,1.127-.025.067-.385,1.156-.02.069-.306,1.179-.016.07-.226,1.197-.011.07-.143,1.188-.006.07-.064,1.195v.07s.014,1.196.014,1.196l.003.07.094,1.193.008.07.173,1.184.012.069.251,1.17.017.068.328,1.151.021.067.404,1.126.026.065.477,1.097.03.064.549,1.063.035.062.618,1.024.038.059.684.981c.084.121.189.219.307.292l.015.018.011.014.11.133.011.013.063.074-.2.231-.041.051-.431.564-.038.053-.394.59-.035.055-.357.613s-.001.006-.003.009c-.041.063-.092.119-.119.193l-.411,1.11-.015.045-.36,1.127-.013.045-.309,1.142-.011.046-.257,1.155-.009.046-.204,1.166-.007.047-.151,1.174-.005.047-.098,1.179-.003.047-.044,1.182v.049s.01,1.25.01,1.25l.002.05.071,1.248.004.05.13,1.243.006.05.19,1.236.009.049.249,1.225.011.049.307,1.212.013.048.365,1.196.016.047.421,1.177c.014.039.043.065.061.102.014.042.012.085.031.126l.528,1.115.019.037.572,1.093.02.036.615,1.07.021.036.656,1.044.023.035.698,1.017.024.034.738.989.026.033.776.958.027.032.814.927.029.032.911.956.031.031.951.916.033.03.99.875.034.029,1.026.832.035.027,1.061.787.036.026.588.399-.148.667-.014.073-.15,1.002-.009.074-.08,1.01-.003.074-.01,1.013.002.074.061,1.011.007.074.131,1.005.012.073.201.993.017.072.27.977.022.071.337.955.027.069.403.93.032.067.467.899.036.064.528.865.041.062.584.821.045.058.64.779.049.055.692.733.052.052.741.683.056.048.787.63.059.044.828.574.062.04.5.297.005.322.003.07.085,1.05.008.07.154,1.042.012.069.222,1.03.017.068.29,1.013.021.067.355.992.026.065.42.966.03.063.483.936.034.061.543.903.038.059.602.865.042.056.657.824.045.053.71.779.049.05.76.73.052.047.795.67.054.042.837.617.057.039.875.561.06.035.909.503.061.031.596.281.106.991.008.057.169,1.039.011.057.225,1.028.014.057.281,1.014.017.055.336.997.02.055.39.977.023.053.443.954.026.052.495.929.029.05.545.9.031.049.593.869.034.047.64.835.037.045.685.799.039.043.727.761.042.041.768.72.043.038.806.676.045.036.842.631.047.034.875.584.049.031.906.536.051.028.934.485.052.025.959.433c.046.021.095.019.142.033.04.029.067.069.112.093l.105.057.033.017.108.053.032.016.109.05.034.014.111.046.034.013.113.042.035.012.114.038.035.011.115.034.036.01.062.016-.016,3.071-.178,6.044-.323,6.029-.423,5.516-.269,2.719-.364-.005h-.038s-1.379.034-1.379.034l-.038.002-1.377.086-.038.003-1.373.137-.038.005-1.367.189-.038.006-1.359.24-.037.007-1.349.291-.037.009-1.364.349-.037.01-1.35.401-.037.012-1.333.453-.036.013-1.315.504-.036.015-1.294.554-.035.016-1.272.603-.035.017-1.248.652c-.063.033-.105.085-.158.128-.258.124-.467.344-.545.643l-.392,1.501-.007.03-.346,1.512-.006.03-.299,1.522-.006.031-.252,1.531-.005.031-.205,1.538-.004.031-.157,1.543-.003.031-.11,1.547-.002.034-.068,1.811v.036s-.004,1.812-.004,1.812v.036s.062,1.811.062,1.811l.002.036.127,1.807.003.036.192,1.802.004.036.253,1.773-.426.09-.022.005-8.779,2.056-.022.005-8.732,2.246-.022.006-8.682,2.435-.022.006-8.627,2.623-.024.008-10.492,3.469-.026.009-10.396,3.746-.026.01-10.293,4.021-.026.01-10.183,4.294-.025.011-10.065,4.563-.025.012-9.94,4.829c-.02.01-.031.028-.05.038-.076.027-.156.044-.227.09l-2.22,1.448-.043.03-2.145,1.557-.042.032-2.064,1.662-.04.034-1.979,1.763-.038.035-1.889,1.859-.036.038-1.794,1.951-.034.039-1.695,2.037-.032.041-1.592,2.119-.03.041-1.402,2.069-.027.041-1.304,2.132-.024.042-.314.572c-1.14,1.93-2.155,3.972-3.023,6.149-.126.307-.277.744-.449,1.291l-.45,1.192-.016.046-.772,2.377-.014.047-.659,2.411c-.006.022,0,.044-.004.067-.008.031-.028.055-.034.088l-.652,3.89-.004.024-.56,3.905-.003.024-.467,3.917-.003.025-.374,3.927-.002.025-.281,3.935v.025s-.189,3.94-.189,3.94v.025S0,358.815,0,358.815v.025s.002,4.026.002,4.026v.025s.1,4.024.1,4.024v.025s.198,4.021.198,4.021v.026s.296,4.015.296,4.015l.002.025.383,3.919c0,.006.001.012.002.018l.007.07c.01.107.051.201.09.296.003.006.003.013.006.018.141.32.429.539.777.597l22.567,7.822.044.014,23.064,6.87.045.013,23.345,5.845.045.01,23.58,4.809.046.008,23.769,3.764.046.007,23.912,2.711.047.004,24.009,1.654.047.002,24.058.593h.047l24.388-.483.047-.002,24.342-1.573.047-.004,24.247-2.661.047-.007,24.104-3.742.047-.008,23.913-4.817.046-.011,23.673-5.882.046-.012,23.386-6.935.045-.014,23.053-7.974c.01-.003.017-.012.027-.016.393-.119.695-.463.737-.897l.392-4.007.002-.025.295-4.015v-.026s.199-4.021.199-4.021v-.025s.101-4.024.101-4.024v-.025s.003-4.026.003-4.026v-.025Zm-252.403-212.52l-1.024-6.365-.889-6.387-.758-6.443-.619-6.454-.482-6.473-.344-6.478-.206-6.479-.056-5.414.775.592.059.042,1.175.777.062.038,1.226.695.064.033,1.27.61.066.029,1.309.522.068.024,1.341.432.07.02,1.367.339.071.015,1.387.245.072.01,1.401.15.072.005,1.408.055h.073s1.408-.041,1.408-.041l.072-.005,1.402-.137.072-.01,1.39-.233.071-.014,1.354-.322.069-.019,1.33-.413.067-.023,1.299-.501.066-.028,1.262-.588.064-.032,1.22-.671.062-.037,1.172-.752.059-.041,1.119-.829.056-.045,1.06-.903.053-.048.997-.972.049-.052.357-.398.358.596.044.067.422.596.049.063.466.562.053.06.507.526.057.055.545.487.062.051.58.444.065.046.612.399.069.041.64.352.071.036.665.303.074.031.685.252.076.025.702.2.078.019.716.147.079.013.725.093.079.007.729.038h.08s.73-.016.73-.016l.08-.005.727-.072.079-.011.719-.126.078-.017.707-.18.077-.023.691-.232.074-.028.672-.283.073-.034.649-.333.07-.039.622-.381.066-.044.592-.426.063-.049.558-.469.059-.053.521-.51.055-.058.411-.467c.016.008.026.022.043.029l.977.408.069.026,1.003.34.071.021,1.024.269.072.016,1.04.198.073.011,1.052.125.073.006,1.058.052h.074s1.059-.021,1.059-.021l.073-.004,1.054-.095.073-.009,1.045-.168.073-.014,1.031-.24.071-.019,1.012-.311.07-.024.988-.38.068-.029.959-.448.066-.033.926-.513.063-.038.889-.576.06-.042.847-.637.057-.046.801-.694.054-.05.75-.747.05-.054.697-.798.046-.057.64-.844.042-.06.58-.886.038-.063.018-.033.036.031.677.535.059.043.713.487.062.039.744.437.064.035.772.384.066.03.797.33.069.026.818.274.07.021.835.218.072.016.848.16.072.011.857.101.073.006.862.042h.073s.863-.017.863-.017l.072-.004.836-.074.071-.009.83-.13.07-.013.819-.185.069-.018.805-.24.068-.023.787-.293.066-.027.766-.345.064-.031.741-.396.062-.036.713-.444.035-.024.158.252.034.052.643.906.037.05.695.866.04.047.744.824.043.045.791.78.045.042.835.732.048.039.876.682.05.037.915.63.052.034.95.575.054.031.982.519.055.027,1,.456.057.024,1.024.398.058.021,1.045.338.059.017,1.063.277.06.014,1.077.215.061.01,1.088.153.061.007.409.033.449.623.042.055.845,1.024.046.052.91.967.049.049.971.906.052.045,1.028.841.055.042,1.081.772.057.038,1.129.7.06.034,1.172.625.062.031,1.21.547.064.027,1.243.467.066.022,1.271.385.067.018,1.293.301.068.014,1.31.216.069.009,1.34.132.07.005,1.346.043h.07s1.345-.046,1.345-.046l.07-.005,1.339-.135.07-.009,1.328-.223.069-.014,1.31-.31.068-.018,1.287-.396.066-.023,1.258-.48.065-.027,1.223-.562.063-.031,1.184-.642.061-.035,1.138-.719.058-.04.779-.567-.14,4.399-.344,6.478-.482,6.47-.619,6.454-.757,6.441-.889,6.387-1.024,6.367-1.159,6.345-1.293,6.316-1.428,6.293-1.519,6.093s-.004.006-.005.01l-.982,2.947-1.11,2.877-1.242,2.82-1.374,2.761-1.501,2.692-1.626,2.62-1.744,2.539-1.863,2.457-1.995,2.389-2.105,2.292-2.21,2.189-2.312,2.084-2.409,1.974-2.497,1.856-2.581,1.736-2.682,1.625-1.576.723-1.612.681-1.639.635-1.659.585-1.67.533-1.689.483-1.703.431-1.868.41-1.885.349-1.891.286-1.901.223-1.909.161-1.909.097-1.934.034c-.021,0-.038.011-.058.013-.021-.001-.038-.012-.058-.013l-1.934-.034-1.909-.097-1.908-.161-1.901-.223-1.891-.286-1.884-.349-1.868-.41-1.704-.431-1.689-.483-1.67-.533-1.659-.585-1.639-.635-1.612-.681-1.576-.723-2.682-1.625-2.582-1.736-2.497-1.856-2.409-1.974-2.311-2.083-2.211-2.191-2.105-2.292-1.995-2.389-1.863-2.457-1.745-2.54-1.626-2.62-1.5-2.692-1.374-2.761-1.243-2.821-1.11-2.876-.982-2.947s-.004-.006-.005-.009l-1.52-6.096-1.427-6.29-1.293-6.316-1.159-6.345Zm20.131-129.252l.09-.056.056-.03c-.048.028-.098.057-.146.086Zm-5.575,222.021l.183-1.853c.006-.041.025-.077.026-.119,0-.017-.009-.031-.009-.048l.347-3.508.002-.023.425-5.54v-.024s.326-6.058.326-6.058v-.025s.18-6.064.18-6.064v-.025s.033-6.066.033-6.066v-.025s-.114-6.065-.114-6.065v-.025s-.248-5.76-.248-5.76l1.243,3.088.033.074,1.619,3.263.039.071,1.868,3.127.044.068,2.106,2.972.05.064,2.331,2.799.054.06,2.542,2.609.059.056,2.737,2.404.063.051,2.915,2.183.067.046,3.077,1.95.071.041,3.219,1.704.073.035,3.342,1.449.076.029,3.444,1.184.078.023,3.526.913.08.017,3.586.636.081.011,3.625.355.081.005,3.642.072h.08s3.484-.199,3.484-.199l.078-.007,3.46-.457.077-.013,3.416-.714.076-.019,3.354-.966.074-.024,3.272-1.214.072-.03,3.173-1.454.07-.035,3.055-1.687.067-.04,2.921-1.91.064-.045,2.771-2.122.06-.05,2.605-2.323.056-.054,2.424-2.511.052-.058,2.23-2.685.048-.062,2.024-2.843.043-.065,1.806-2.986.038-.068,1.579-3.113.033-.071,1.322-3.173-.231,5.398v.025s-.114,6.065-.114,6.065v.025s.032,6.066.032,6.066v.025s.179,6.064.179,6.064v.025s.326,6.058.326,6.058l.002.024.425,5.54.002.023.547,5.529.002.023.669,5.515.003.023.791,5.499.004.023.354,2.129-3.254,2.11-4.38,2.641-4.358,2.44-4.426,2.295-4.501,2.155-4.568,2.01-4.626,1.862-4.693,1.717c-.247.082-.442.248-.562.471-.026.044-.064.077-.084.126l-.603,1.477-.646,1.435-.698,1.414-.747,1.386-.797,1.359-.845,1.332-.889,1.297-.892,1.208-.931,1.175-.972,1.145-1.009,1.11-1.046,1.076-1.083,1.04-.441.396-.168-.143c-.062-.073-.136-.129-.216-.184l-.066-.057-1.111-1.011-1.076-1.048-1.04-1.084-.999-1.115-.961-1.148-.928-1.188-.923-1.27-.882-1.31-.832-1.336-.785-1.366-.736-1.393-.686-1.419-.642-1.459c-.021-.047-.059-.079-.085-.121-.127-.223-.329-.385-.582-.46l-4.732-1.588-4.678-1.738-4.618-1.885-4.558-2.032-4.486-2.175-4.422-2.321-4.45-2.522-4.044-2.47.493-2.964.004-.023.791-5.499.003-.023.669-5.516.002-.023Zm5.119,171.185c.04.017.082.033.122.05l-.157-.011c.011-.014.024-.024.035-.039Zm126.618-259.29l-.593,1.031-.635,1.011-.675.984-.711.953-.752.928-.786.896-.881.923-.92.886-.955.844-.993.805-1.022.759-1.056.717-1.086.671-1.134.635c-.037.021-.059.055-.092.079l-.627.317-.656.288-.667.25-.683.214-.695.176-.699.137-.707.099-.714.06-.713.021-.712-.018-.795-.066-.788-.114-.777-.162-.764-.208-.754-.256-.735-.3-.717-.345-.692-.387-.67-.431-.372-.272.607-2.675.005-.022,1.298-6.339.004-.022,1.163-6.365.004-.022.097-.603c.046-.035.099-.057.139-.101l.848-.917.87-.857.912-.819.946-.774.417-.31c.082.032.161.072.253.083l.444.053.415.072.41.095.402.116.396.138.389.16.379.18.369.2.358.22.344.239.331.257.318.276.301.291.285.307.269.323.249.335.232.35.227.386c.292.498.932.664,1.43.372.498-.292.664-.932.372-1.43l-.241-.41-.03-.048-.263-.397-.032-.046-.284-.382-.035-.045-.304-.366-.037-.042-.324-.349-.04-.04-.342-.331-.042-.038-.359-.312-.044-.036-.375-.292-.046-.033-.391-.271-.048-.031-.406-.25-.049-.028-.419-.228-.051-.026-.43-.205-.052-.023-.441-.181-.053-.02-.45-.157-.054-.017-.115-.033.207-.126,1.075-.589,1.105-.54,1.126-.487,1.151-.436,1.166-.38,1.185-.327,1.198-.271,1.212-.216,1.241-.162c.572-.075.975-.599.9-1.171-.075-.572-.599-.975-1.171-.9l-1.267.166-.048.007-1.258.224-.048.01-1.246.282-.047.012-1.231.339-.046.014-1.214.396-.046.016-1.195.452-.045.018-1.172.507-.044.02-1.148.561-.043.022-1.116.611-.042.024-1.086.662-.041.026-1.054.711-.039.028-1.021.759-.038.03-.985.805-.037.031-.824.74.364-2.262.003-.022.833-5.982.385-.668.417-.66.444-.641.473-.626.498-.604.52-.58.548-.562.567-.535.602-.522.625-.497.642-.467.663-.441.683-.413.696-.381.715-.354.747-.33c.025-.011.041-.033.065-.046,0,0,.002,0,.003,0l.658-.244.637-.19.65-.149.659-.107.662-.064.666-.021.668.022.662.065.657.107.651.15.637.191.626.233.588.262.569.298.553.335.529.367.506.4.478.429.452.46.423.487.391.512.358.536.34.584c.007.011.018.017.025.028l.346.936.346,1.082.297,1.097.246,1.108.197,1.121.145,1.125.094,1.133.043,1.136-.01,1.198-.068,1.199-.125,1.195-.182,1.184-.239,1.178-.294,1.161-.35,1.15-.413,1.153c-.003.008,0,.016-.003.024-.003.006-.008.009-.01.014l-.519,1.096-.552,1.056Zm-164.596,8.457l-.956-.845-.92-.885-.881-.924-.784-.894-.752-.929-.711-.953-.675-.984-.635-1.01-.594-1.033-.552-1.056-.519-1.096c-.002-.005-.008-.009-.01-.014-.003-.008,0-.016-.003-.024l-.413-1.153-.35-1.15-.294-1.161-.239-1.178-.182-1.185-.125-1.193-.068-1.2-.01-1.199.043-1.135.094-1.133.145-1.125.197-1.121.246-1.108.297-1.097.346-1.082.346-.936c.007-.011.019-.017.025-.028l.34-.584.359-.536.391-.512.423-.487.453-.461.477-.428.506-.4.529-.367.553-.335.569-.298.588-.262.626-.233.637-.191.651-.15.657-.107.662-.065.668-.022.666.021.662.064.659.107.65.149.637.19.658.244s.002,0,.003,0c.024.013.04.035.065.046l.746.33.716.354.696.381.684.413.663.441.642.467.625.497.602.522.567.535.548.562.52.58.498.604.473.626.444.641.417.66.385.668.833,5.982.003.022.364,2.263-.824-.74-.037-.031-.985-.805-.038-.03-1.021-.759-.04-.028-1.054-.711-.041-.026-1.086-.662-.042-.024-1.116-.611-.043-.022-1.147-.561-.044-.02-1.172-.507-.045-.018-1.195-.452-.046-.016-1.214-.396-.046-.014-1.231-.339-.047-.012-1.246-.282-.048-.01-1.257-.224-.048-.007-1.267-.166c-.572-.075-1.096.328-1.171.9-.075.572.329,1.097.901,1.171l1.241.162,1.212.216,1.199.271,1.185.327,1.166.38,1.151.436,1.127.487,1.105.54,1.075.588.207.126-.115.033-.054.017-.45.157-.053.02-.441.181-.052.023-.43.205-.051.026-.418.228-.049.028-.406.25-.047.031-.391.271-.045.033-.376.292-.044.036-.36.312-.042.038-.342.331-.04.04-.324.349-.037.042-.304.366-.035.045-.284.382-.032.046-.263.397-.03.048-.241.41c-.292.498-.126,1.138.372,1.43.498.292,1.138.126,1.43-.372l.227-.386.231-.35.25-.336.269-.323.285-.307.3-.291.318-.276.331-.257.344-.239.358-.22.369-.2.379-.18.389-.16.397-.138.402-.116.41-.095.415-.072.444-.053c.092-.011.171-.051.253-.083l.417.31.946.774.912.819.87.857.849.917c.041.044.094.065.14.101l.097.602.004.022,1.163,6.365.004.022,1.298,6.339.004.022.607,2.675-.373.273-.67.43-.692.387-.717.345-.735.3-.755.256-.764.208-.777.162-.788.114-.795.066-.712.018-.713-.021-.713-.06-.707-.099-.699-.137-.695-.176-.518-.162-.575-.205-.257-.096-.656-.288-.627-.317c-.033-.024-.055-.058-.092-.079l-1.133-.635-1.087-.672-1.055-.716-1.022-.759-.993-.805Z" fill="#000000" class="color000 svgShape"></path><path d="M223.714 125.676l-.047-.358-.017-.094-.079-.352-.025-.093-.111-.343-.034-.09-.142-.331-.042-.086-.172-.317-.05-.082-.2-.3-.057-.077-.227-.28-.063-.072-.252-.258-.07-.066-.274-.234-.075-.058-.294-.208-.081-.052-.312-.18-.085-.044-.327-.151-.089-.036-.34-.12-.092-.028-.35-.088-.094-.019-.356-.056-.095-.01-.36-.023-.096-.002-.36.01-.096.007-.358.043c-.056.007-.102.036-.155.051-.055.005-.108-.005-.164.01l-.348.092-.091.029-.338.123-.088.037-.325.154-.084.045-.31.183-.08.052-.292.21-.075.059-.271.236-.069.066-.249.26-.063.072-.224.281-.056.078-.197.301-.049.082-.169.318-.041.087-.139.332-.033.09-.108.343-.024.092-.076.351-.016.094-.044.357-.007.095-.011.359v.096s.024.359.024.359l.01.095.055.355.019.094.087.349.028.092.119.34.036.089.149.327.044.085.178.312.051.081.207.295.059.076.232.274.065.07.257.252.071.064.279.227.077.057.298.201.082.05.315.173.085.042.33.144.09.034.341.113.092.026.351.081.094.017.356.048.095.009.359.016h.095s.359-.017.359-.017l.096-.009.356-.05.094-.018.35-.082.092-.026.342-.114.09-.035.33-.145.086-.042.315-.175.082-.051.298-.203.077-.058.278-.229.071-.064.256-.254.065-.071.231-.276.058-.076.205-.297.051-.081.177-.314.043-.086.147-.329.035-.089.117-.341.027-.092.085-.35.018-.094.052-.357.01-.095.02-.36v-.096s-.013-.36-.013-.36l-.008-.096zM157.481 129.985l.257.252.072.064.279.227.077.057.298.201.082.05.315.173.086.042.33.143.089.034.342.112.092.026.351.081.094.017.356.048.095.008.359.016h.096s.359-.018.359-.018l.095-.009.356-.05.094-.018.35-.083.092-.026.342-.115.09-.035.33-.145.086-.043.315-.175.081-.05.298-.203.076-.058.278-.229.071-.064.255-.254.065-.071.231-.276.058-.076.205-.296.051-.081.177-.314.043-.086.147-.329.035-.089.116-.341.027-.092.085-.35.018-.094.052-.356.01-.095.019-.36v-.096s-.013-.36-.013-.36l-.008-.095-.046-.357-.017-.094-.079-.352-.025-.093-.111-.343-.034-.09-.142-.331-.042-.087-.172-.317-.05-.082-.2-.3-.057-.077-.227-.28-.064-.072-.251-.258-.07-.065-.274-.234-.076-.059-.294-.208-.081-.052-.312-.18-.085-.044-.327-.15-.089-.036-.34-.12-.092-.028-.349-.088-.094-.019-.356-.056-.095-.01-.36-.023-.096-.002-.36.01-.095.007-.358.043c-.056.007-.102.036-.155.051-.055.005-.109-.005-.164.01l-.348.092-.091.028-.338.123-.089.037-.325.153-.084.045-.31.182-.08.053-.292.21-.075.059-.271.236-.069.066-.249.26-.063.072-.224.281-.056.078-.197.301-.049.082-.169.318-.041.086-.139.332-.033.09-.108.343-.025.092-.076.351-.016.094-.044.357-.007.096-.011.359v.095s.023.359.023.359l.01.095.055.355.019.094.087.349.027.092.119.339.036.089.149.327.044.085.179.312.051.081.207.295.059.076.232.274.065.07zM199.335 119.502c.166.552.748.866 1.301.7 1.493-.448 2.936-.88 4.694-1.206h0c1.769-.328 3.874-.552 6.032-.78h0c2.256-.15 4.491-.297 7.609-.313h0c.223-.001.347-.001.576-.001 3.048 0 6.785.118 9.658.346 3.043.242 5.137.609 6.971.938h-.001c.123.022-.068-.013.055.01h.002c.906.163 1.892.344 2.582.344.179 0 .384-.012.58-.052.08-.017.175-.041.266-.075h0c.756-.28 1.077-1.032.801-1.781h0c-.018-.047-.035-.088-.055-.132-.516-1.133-2.869-3.074-4.553-4.179h0c-1.894-1.244-3.423-1.763-4.989-2.065-1.53-.296-3.095-.384-5.368-.474-2.144-.084-4.958-.17-7.777-.17-.228 0-.375 0-.603.001h0c-3.002.014-5.917.133-8.26.338-2.32.203-4.171.495-5.569 1.031-1.459.56-2.481 1.41-3.086 2.782-.538 1.22-.714 2.816-.869 4.201-.042.174-.056.355 0 .538z" fill="#000000" class="color000 svgShape"></path><polygon points="240.408 117.497 240.408 117.498 240.408 117.499 240.408 117.497" fill="#000000" class="color000 svgShape"></polygon><polygon points="239.396 119.485 239.395 119.485 239.395 119.486 239.396 119.485" fill="#000000" class="color000 svgShape"></polygon><polygon points="137.626 119.486 137.626 119.485 137.626 119.485 137.626 119.486" fill="#000000" class="color000 svgShape"></polygon><polygon points="136.559 117.631 136.559 117.63 136.559 117.63 136.559 117.631" fill="#000000" class="color000 svgShape"></polygon><path d="m137.36,119.41h0c.091.034.186.059.266.075.195.041.4.052.58.052.69,0,1.676-.181,2.582-.343h.002c.123-.023-.069.012.055-.01h-.001c1.834-.328,3.928-.696,6.971-.938,2.874-.229,6.61-.346,9.658-.346.23,0,.354,0,.577.001h0c3.118.016,5.353.164,7.609.313h0c2.158.229,4.263.452,6.032.78h0c1.759.326,3.201.758,4.694,1.206.553.166,1.135-.148,1.301-.7.055-.183.041-.365,0-.538-.154-1.385-.331-2.98-.869-4.201-.605-1.372-1.626-2.222-3.085-2.782-1.398-.536-3.25-.829-5.57-1.031-2.343-.205-5.257-.324-8.26-.338h0c-.227,0-.375-.001-.602-.001-2.818,0-5.632.086-7.777.17-2.273.089-3.837.178-5.368.474-1.565.302-3.094.822-4.989,2.065h0c-1.684,1.106-4.037,3.047-4.553,4.179-.02.043-.037.084-.054.132-.277.749.045,1.501.801,1.78Zm30.596-6.382h0s0,.003,0,.003v-.003Z" fill="#000000" class="color000 svgShape"></path><polygon points="136.613 117.499 136.613 117.498 136.614 117.497 136.613 117.499" fill="#000000" class="color000 svgShape"></polygon><path d="M183.001 151.799l.459.276.447.284.438.294.429.304.417.312.417.328.411.34.405.354.395.363.387.375.373.381.376.404c.393.422 1.054.446 1.476.052.422-.393.446-1.054.052-1.477l-.384-.412-.019-.02-.395-.402-.019-.019-.405-.392-.02-.018-.415-.382-.02-.018-.425-.371-.021-.018-.434-.36-.02-.017-.434-.342-.021-.016-.442-.33-.021-.016-.45-.319-.021-.015-.458-.308-.022-.015-.384-.244.398-1.221.004-.011.569-1.814.003-.011.549-1.82.003-.011.529-1.826.003-.011.508-1.831.003-.011.497-1.872.003-.011.476-1.877.003-.011.455-1.883.003-.011.433-1.887.003-.011.412-1.892c.123-.564-.235-1.12-.799-1.243-.564-.123-1.12.235-1.243.798l-.412 1.89-.43 1.872-.452 1.87-.474 1.869-.495 1.864.003-.011-.507 1.826-.524 1.811-.545 1.808-.567 1.806-.587 1.801c-.081.248-.053.501.041.724.036.311.193.605.483.779zM191.664 156.152c.504.281 1.14.1 1.421-.404l.134-.241.131-.213.139-.207.15-.204.156-.194.169-.193.171-.18.182-.175.181-.161.191-.156.197-.147.201-.138.205-.129.216-.124.213-.111.242-.114c.522-.245.747-.867.502-1.39-.245-.522-.867-.747-1.389-.502l-.26.122-.038.019-.255.133-.038.021-.25.143-.036.022-.243.153-.036.024-.237.163-.034.025-.23.173-.034.026-.223.182-.033.028-.215.191-.032.03-.213.205-.031.031-.204.214-.03.032-.195.222-.028.034-.185.23-.027.035-.175.238-.025.036-.165.245-.024.037-.155.252-.022.038-.144.258c-.281.504-.1 1.14.404 1.421z" fill="#000000" class="color000 svgShape"></path><path d="M177.385 156.193l-.541.158-.059.019-.531.189-.058.022-.519.219-.056.026-.506.249-.055.029-.49.278s-.002.002-.003.003c-.043.021-.09.025-.132.052l-.912.595-.915.54-.94.499-.961.456-.978.411-1 .367-1.013.321-1.027.275-1.026.226-1.026.178-1.042.133-1.042.087-1.047.04-1.045-.007-1.048-.053-1.065-.102c-.394-.038-.745.156-.957.458 0 0-.001 0-.001.001 0 0 0 0 0 0-.061.087-.102.183-.135.288-.018.051-.036.099-.046.151-.003.02-.015.036-.017.056-.003.034.01.064.01.097-.004.106.005.208.032.31.003.009.006.017.009.026.063.212.176.412.368.554l1.182.875.047.033 1.228.809.049.03 1.27.742.051.028 1.308.672.052.025 1.343.6.053.022 1.373.526.054.019 1.4.451.055.016 1.422.374.056.013 1.44.297.057.01 1.454.218.061.007 1.667.152.065.004 1.674.048h.065l1.674-.055.065-.004 1.667-.158.065-.008 1.654-.261.064-.012 1.635-.363.063-.016 1.609-.463.062-.02 1.578-.561.061-.024 1.54-.658.059-.028 1.497-.751.057-.031 1.402-.816 1.402.816.058.031 1.497.751.06.028 1.54.658.061.024 1.578.561.062.02 1.609.463.063.016 1.635.363.064.012 1.654.261.065.008 1.667.158.065.004 1.674.055h.065l1.674-.048.065-.004 1.668-.152.061-.007 1.454-.218.057-.01 1.44-.297.056-.013 1.422-.374.055-.016 1.4-.451.054-.019 1.373-.526.053-.022 1.343-.6.052-.025 1.308-.672.051-.028 1.27-.742.049-.03 1.228-.809.047-.033 1.182-.875c.192-.142.305-.342.368-.554.003-.009.007-.017.009-.026.028-.102.036-.204.032-.31 0-.033.013-.063.01-.097-.002-.02-.014-.036-.017-.056-.01-.052-.028-.1-.046-.151-.033-.105-.074-.201-.135-.288 0 0 0 0 0 0 0 0 0 0-.001-.001-.212-.302-.563-.496-.957-.458l-1.065.102-1.048.053-1.045.007-1.046-.04-1.042-.087-1.042-.133-1.027-.178-1.025-.226-1.027-.275-1.012-.321-1-.367-.979-.411-.961-.455-.94-.499-.915-.54-.911-.595c-.042-.027-.089-.032-.132-.053-.001 0-.002-.002-.003-.003l-.49-.278-.055-.029-.506-.249-.056-.026-.519-.219-.058-.022-.531-.189-.059-.019-.541-.158-.06-.016-.55-.126-.061-.012-.556-.094-.061-.008-.56-.061-.062-.005-.563-.028h-.062s-.564.003-.564.003l-.062.002-.562.038-.057.005-.475.058-.052.008-.471.081-.051.01-.467.104-.051.013-.461.127-.05.015-.454.15-.05.018-.446.172-.049.02-.437.194-.047.022-.427.215-.046.025-.416.236c-.041.023-.066.062-.103.089-.077.041-.157.073-.224.134l-.458.416h0s-.458.416-.458.416h0s-.458.415-.458.415h0s-.458.415-.458.415h0s-.458.415-.458.415h0s-.46.416-.46.416h0s-.46.416-.46.416h0s-.46.416-.46.416h0s-.185.167-.185.167l-.185-.167h0s-.46-.416-.46-.416h0s-.46-.416-.46-.416h0s-.46-.416-.46-.416h0s-.458-.415-.458-.415h0s-.458-.415-.458-.415h0s-.458-.415-.458-.415h0s-.458-.416-.458-.416h0s-.458-.416-.458-.416c-.067-.061-.148-.094-.224-.134-.037-.028-.062-.066-.103-.089l-.416-.236-.046-.025-.427-.215-.047-.022-.437-.194-.049-.02-.447-.172-.05-.018-.454-.15-.05-.015-.461-.127-.051-.013-.467-.104-.051-.01-.472-.081-.052-.008-.475-.058-.057-.005-.562-.038-.062-.002-.563-.005h-.062s-.563.029-.563.029l-.062.005-.561.061-.061.008-.556.094-.061.012-.55.126-.06.016zM196.228 174.728l-.647.304-.642.261-.649.226-.663.193-.669.157-.68.123-.685.087-.689.052-.615.016-.619-.013-.617-.042-.614-.071-.612-.099-.604-.127-.598-.156-.589-.183-.606-.219c-.549-.199-1.156.085-1.355.634s.085 1.156.634 1.355l.628.227.047.016.638.198.048.014.646.168.048.011.653.138.049.009.659.107.049.007.663.076.049.004.666.045.049.002.667.014h.05s.667-.017.667-.017l.052-.003.742-.056.055-.006.739-.094.054-.008.733-.133.054-.011.725-.171.053-.014.715-.208.052-.017.703-.245.052-.019.689-.281.051-.022.674-.317c.529-.249.756-.879.508-1.407s-.879-.756-1.407-.508z" fill="#000000" class="color000 svgShape"></path></g></g></svg></g></svg>