<svg id="SvgjsSvg1001" width="256" height="256" xmlns="http://www.w3.org/2000/svg" version="1.1" xmlns:xlink="http://www.w3.org/1999/xlink" xmlns:svgjs="http://svgjs.com/svgjs"><defs id="SvgjsDefs1002"></defs><g id="SvgjsG1008"><svg xmlns="http://www.w3.org/2000/svg" viewBox="0 0 64 64" width="256" height="256"><path fill="#a2d0ff" d="M62 41H32a15 15 0 0 1 30 0Z" class="colora2d0ff svgShape"></path><circle cx="47" cy="22" r="7" fill="#a2d0ff" class="colora2d0ff svgShape"></circle><path fill="#a2d0ff" d="M42 49H2a20 20 0 0 1 40 0Z" class="colora2d0ff svgShape"></path><circle cx="22" cy="24" r="9" fill="#a2d0ff" class="colora2d0ff svgShape"></circle><path fill="#2e58ff" d="M55 26a9 9 0 1 0-16 0 16.85 16.85 0 0 0-5.23 4.37 21.8 21.8 0 0 0-2.06-1.16 11 11 0 1 0-19.34 0A22 22 0 0 0 0 49a2 2 0 0 0 2 2h40a2 2 0 0 0 2-2 21.63 21.63 0 0 0-.84-6H62a2 2 0 0 0 2-2 17 17 0 0 0-9-15Zm-13-4a5 5 0 1 1 5 5 5 5 0 0 1-5-5Zm-20-5a7 7 0 1 1-5 11.9A7 7 0 0 1 22 17Zm17.89 30H4.11A18 18 0 0 1 15 32.44a11 11 0 0 0 14.08 0A18 18 0 0 1 39.89 47Zm1.7-8a22 22 0 0 0-4.69-6.17 12.88 12.88 0 0 1 4.69-3.64 9 9 0 0 0 10.82 0A13 13 0 0 1 59.85 39Z" class="color2e58ff svgShape"></path></svg></g></svg>